<?xml version="1.0" encoding="UTF-8"?><svg xmlns="http://www.w3.org/2000/svg" xmlns:xlink="http://www.w3.org/1999/xlink" contentScriptType="text/ecmascript" width="375" zoomAndPan="magnify" contentStyleType="text/css" viewBox="0 0 375 374.999991" height="374.999991" preserveAspectRatio="xMidYMid meet" version="1.0"><defs><clipPath id="clip-0"><path d="M 73 6.808594 L 295 6.808594 L 295 308 L 73 308 Z M 73 6.808594 " clip-rule="nonzero"/></clipPath></defs><g clip-path="url(#clip-0)"><path fill="rgb(3.529358%, 11.759949%, 24.708557%)" d="M 106.09375 275.234375 C 111.835938 276.539062 117.652344 277.214844 123.542969 277.261719 C 126.179688 277.261719 128.808594 277.132812 131.414062 276.925781 C 122.421875 270.847656 114.707031 263.433594 108.277344 254.6875 L 106.390625 233.441406 L 103.914062 233.441406 C 103.449219 233.441406 102.988281 233.394531 102.53125 233.304688 C 102.074219 233.214844 101.632812 233.078125 101.203125 232.902344 C 100.769531 232.722656 100.363281 232.503906 99.976562 232.246094 C 99.589844 231.988281 99.230469 231.691406 98.902344 231.363281 C 98.574219 231.035156 98.277344 230.675781 98.019531 230.289062 C 97.761719 229.902344 97.542969 229.492188 97.367188 229.0625 C 97.1875 228.632812 97.054688 228.1875 96.960938 227.734375 C 96.871094 227.277344 96.824219 226.816406 96.824219 226.347656 L 96.824219 189.804688 C 96.824219 188.902344 96.914062 188.007812 97.089844 187.121094 C 97.265625 186.234375 97.523438 185.375 97.871094 184.539062 C 98.214844 183.703125 98.636719 182.910156 99.140625 182.160156 C 99.640625 181.40625 100.210938 180.710938 100.851562 180.074219 C 101.488281 179.433594 102.183594 178.863281 102.933594 178.363281 C 103.683594 177.859375 104.476562 177.4375 105.3125 177.089844 C 106.148438 176.746094 107.007812 176.484375 107.894531 176.308594 C 108.777344 176.132812 109.671875 176.046875 110.578125 176.046875 L 116.867188 176.046875 C 117.160156 176.046875 117.441406 176.003906 117.71875 175.914062 C 117.996094 175.828125 118.253906 175.695312 118.488281 175.523438 C 118.722656 175.351562 118.921875 175.148438 119.09375 174.910156 C 119.261719 174.671875 119.386719 174.414062 119.472656 174.136719 C 119.558594 173.859375 119.597656 173.574219 119.59375 173.285156 C 119.585938 172.992188 119.535156 172.710938 119.4375 172.4375 C 119.339844 172.164062 119.203125 171.910156 119.023438 171.679688 C 118.847656 171.449219 118.636719 171.253906 118.394531 171.09375 C 117.195312 170.328125 116.105469 169.425781 115.132812 168.386719 C 114.15625 167.347656 113.328125 166.203125 112.644531 164.953125 C 111.957031 163.703125 111.4375 162.386719 111.085938 161.007812 C 110.730469 159.625 110.554688 158.222656 110.554688 156.796875 L 110.554688 153.929688 C 110.554688 153.339844 110.585938 152.75 110.644531 152.164062 C 110.707031 151.574219 110.800781 150.992188 110.921875 150.417969 C 111.042969 149.839844 111.195312 149.269531 111.375 148.707031 C 111.558594 148.148438 111.769531 147.597656 112.007812 147.054688 C 112.246094 146.515625 112.511719 145.992188 112.804688 145.480469 C 113.097656 144.96875 113.417969 144.472656 113.765625 143.996094 C 114.109375 143.515625 114.480469 143.058594 114.871094 142.617188 C 115.265625 142.175781 115.679688 141.757812 116.117188 141.363281 C 116.554688 140.964844 117.011719 140.59375 117.488281 140.246094 C 117.960938 139.894531 118.453125 139.574219 118.964844 139.277344 C 119.472656 138.980469 119.996094 138.707031 120.535156 138.464844 C 121.074219 138.222656 121.621094 138.007812 122.179688 137.824219 C 122.742188 137.640625 123.308594 137.484375 123.886719 137.359375 C 124.460938 137.230469 125.042969 137.136719 125.628906 137.070312 C 126.214844 137.003906 126.804688 136.972656 127.394531 136.96875 C 127.984375 136.964844 128.570312 136.992188 129.160156 137.046875 C 137.96875 137.890625 144.425781 145.777344 144.425781 154.648438 L 144.425781 156.832031 C 144.425781 158.257812 144.25 159.660156 143.894531 161.039062 C 143.542969 162.421875 143.023438 163.734375 142.335938 164.984375 C 141.652344 166.234375 140.820312 167.378906 139.847656 168.417969 C 138.875 169.457031 137.785156 170.359375 136.585938 171.125 C 136.347656 171.289062 136.140625 171.488281 135.964844 171.71875 C 135.789062 171.949219 135.652344 172.199219 135.558594 172.472656 C 135.464844 172.746094 135.414062 173.03125 135.410156 173.320312 C 135.40625 173.609375 135.445312 173.890625 135.53125 174.167969 C 135.617188 174.445312 135.746094 174.699219 135.914062 174.9375 C 136.082031 175.171875 136.28125 175.375 136.515625 175.546875 C 136.746094 175.722656 137 175.851562 137.277344 175.941406 C 137.550781 176.035156 137.832031 176.078125 138.121094 176.078125 L 144.414062 176.078125 C 145.5 176.082031 146.570312 176.210938 147.625 176.46875 C 148.683594 176.722656 149.691406 177.101562 150.660156 177.597656 C 151.625 178.09375 152.519531 178.699219 153.339844 179.40625 C 154.164062 180.117188 154.890625 180.914062 155.527344 181.796875 C 154.296875 182.179688 153.109375 182.65625 151.957031 183.226562 C 150.804688 183.796875 149.703125 184.453125 148.65625 185.199219 C 147.609375 185.945312 146.628906 186.769531 145.710938 187.671875 C 144.792969 188.574219 143.953125 189.542969 143.191406 190.578125 C 142.425781 191.613281 141.75 192.703125 141.160156 193.84375 C 140.570312 194.988281 140.074219 196.167969 139.671875 197.390625 C 139.269531 198.613281 138.964844 199.859375 138.757812 201.128906 C 138.554688 202.398438 138.449219 203.675781 138.449219 204.960938 L 138.449219 255.265625 C 138.449219 256.417969 138.621094 257.550781 138.957031 258.65625 C 139.289062 259.761719 139.777344 260.796875 140.417969 261.757812 C 141.058594 262.71875 141.824219 263.566406 142.714844 264.304688 C 143.605469 265.039062 144.582031 265.628906 145.644531 266.078125 L 144.839844 275.023438 C 149.847656 273.953125 154.738281 272.5 159.515625 270.660156 L 157.433594 260.085938 L 150.171875 260.085938 C 149.855469 260.089844 149.542969 260.058594 149.230469 259.996094 C 148.917969 259.933594 148.617188 259.84375 148.324219 259.722656 C 148.03125 259.601562 147.753906 259.453125 147.492188 259.277344 C 147.226562 259.101562 146.984375 258.902344 146.761719 258.679688 C 146.535156 258.453125 146.335938 258.210938 146.160156 257.945312 C 145.984375 257.683594 145.835938 257.40625 145.714844 257.113281 C 145.59375 256.820312 145.503906 256.515625 145.441406 256.207031 C 145.382812 255.894531 145.351562 255.582031 145.351562 255.265625 L 145.351562 204.929688 C 145.351562 204.359375 145.378906 203.792969 145.4375 203.226562 C 145.492188 202.660156 145.574219 202.097656 145.6875 201.539062 C 145.796875 200.980469 145.9375 200.429688 146.101562 199.886719 C 146.265625 199.339844 146.460938 198.804688 146.675781 198.28125 C 146.894531 197.753906 147.136719 197.242188 147.40625 196.738281 C 147.675781 196.238281 147.96875 195.75 148.28125 195.277344 C 148.597656 194.804688 148.9375 194.347656 149.296875 193.910156 C 149.660156 193.46875 150.042969 193.046875 150.445312 192.644531 C 150.84375 192.242188 151.265625 191.863281 151.707031 191.5 C 152.144531 191.140625 152.601562 190.800781 153.074219 190.484375 C 153.546875 190.167969 154.035156 189.878906 154.535156 189.609375 C 155.039062 189.339844 155.550781 189.097656 156.078125 188.878906 C 156.601562 188.664062 157.136719 188.472656 157.683594 188.304688 C 158.226562 188.140625 158.777344 188.003906 159.335938 187.890625 C 159.894531 187.78125 160.453125 187.699219 161.019531 187.640625 C 161.585938 187.585938 162.152344 187.558594 162.722656 187.558594 L 170.671875 187.558594 C 171.039062 187.558594 171.398438 187.503906 171.746094 187.390625 C 172.097656 187.277344 172.417969 187.113281 172.714844 186.898438 C 173.011719 186.679688 173.265625 186.421875 173.480469 186.121094 C 173.695312 185.824219 173.855469 185.496094 173.964844 185.148438 C 174.074219 184.796875 174.125 184.4375 174.117188 184.070312 C 174.109375 183.703125 174.046875 183.34375 173.925781 182.996094 C 173.804688 182.652344 173.628906 182.332031 173.40625 182.039062 C 173.179688 181.75 172.917969 181.5 172.613281 181.296875 C 171.09375 180.328125 169.71875 179.191406 168.488281 177.875 C 167.257812 176.5625 166.207031 175.117188 165.339844 173.539062 C 164.472656 171.960938 163.816406 170.296875 163.371094 168.554688 C 162.921875 166.808594 162.699219 165.039062 162.699219 163.234375 L 162.699219 159.570312 C 162.699219 158.867188 162.734375 158.167969 162.804688 157.472656 C 162.871094 156.773438 162.976562 156.082031 163.113281 155.394531 C 163.25 154.707031 163.417969 154.027344 163.621094 153.355469 C 163.828125 152.683594 164.0625 152.023438 164.332031 151.375 C 164.597656 150.730469 164.898438 150.09375 165.230469 149.476562 C 165.558594 148.859375 165.917969 148.257812 166.308594 147.675781 C 166.699219 147.09375 167.117188 146.53125 167.5625 145.988281 C 168.003906 145.445312 168.476562 144.925781 168.972656 144.433594 C 169.46875 143.9375 169.988281 143.464844 170.527344 143.023438 C 171.070312 142.578125 171.632812 142.160156 172.214844 141.769531 C 172.800781 141.382812 173.398438 141.023438 174.019531 140.691406 C 174.636719 140.363281 175.269531 140.0625 175.917969 139.796875 C 176.566406 139.527344 177.222656 139.292969 177.894531 139.089844 C 178.566406 138.886719 179.246094 138.714844 179.933594 138.578125 C 180.621094 138.445312 181.3125 138.339844 182.007812 138.273438 C 182.707031 138.207031 183.40625 138.171875 184.105469 138.171875 C 184.214844 138.171875 184.324219 138.171875 184.433594 138.171875 C 184.542969 138.171875 184.652344 138.171875 184.761719 138.171875 C 185.460938 138.171875 186.160156 138.203125 186.859375 138.273438 C 187.558594 138.339844 188.25 138.441406 188.9375 138.578125 C 189.625 138.714844 190.304688 138.882812 190.976562 139.085938 C 191.648438 139.289062 192.304688 139.523438 192.953125 139.792969 C 193.601562 140.058594 194.234375 140.359375 194.855469 140.6875 C 195.472656 141.019531 196.074219 141.378906 196.65625 141.765625 C 197.242188 142.15625 197.804688 142.574219 198.34375 143.019531 C 198.886719 143.460938 199.40625 143.933594 199.902344 144.429688 C 200.398438 144.921875 200.871094 145.441406 201.316406 145.984375 C 201.761719 146.527344 202.175781 147.089844 202.566406 147.671875 C 202.957031 148.253906 203.316406 148.855469 203.648438 149.472656 C 203.980469 150.09375 204.277344 150.726562 204.546875 151.375 C 204.816406 152.023438 205.050781 152.679688 205.253906 153.351562 C 205.460938 154.023438 205.628906 154.703125 205.765625 155.390625 C 205.902344 156.078125 206.007812 156.773438 206.074219 157.46875 C 206.144531 158.167969 206.179688 158.867188 206.179688 159.570312 L 206.179688 163.203125 C 206.179688 165.003906 205.957031 166.777344 205.511719 168.519531 C 205.066406 170.265625 204.410156 171.925781 203.542969 173.503906 C 202.679688 175.082031 201.628906 176.53125 200.398438 177.84375 C 199.167969 179.15625 197.792969 180.296875 196.277344 181.261719 C 195.972656 181.46875 195.707031 181.714844 195.484375 182.007812 C 195.261719 182.296875 195.089844 182.617188 194.964844 182.960938 C 194.84375 183.308594 194.78125 183.664062 194.773438 184.03125 C 194.765625 184.398438 194.816406 184.757812 194.925781 185.109375 C 195.03125 185.460938 195.191406 185.785156 195.40625 186.082031 C 195.617188 186.382812 195.871094 186.640625 196.167969 186.859375 C 196.460938 187.078125 196.785156 187.242188 197.132812 187.355469 C 197.480469 187.46875 197.839844 187.527344 198.207031 187.527344 L 206.167969 187.527344 C 206.734375 187.527344 207.304688 187.554688 207.867188 187.609375 C 208.433594 187.664062 208.996094 187.75 209.554688 187.859375 C 210.113281 187.96875 210.664062 188.109375 211.207031 188.273438 C 211.75 188.4375 212.285156 188.628906 212.8125 188.847656 C 213.335938 189.066406 213.851562 189.308594 214.351562 189.578125 C 214.855469 189.84375 215.339844 190.136719 215.816406 190.453125 C 216.289062 190.769531 216.742188 191.105469 217.183594 191.46875 C 217.625 191.828125 218.042969 192.210938 218.445312 192.613281 C 218.847656 193.015625 219.230469 193.4375 219.589844 193.875 C 219.953125 194.316406 220.289062 194.773438 220.605469 195.246094 C 220.921875 195.71875 221.214844 196.207031 221.484375 196.707031 C 221.75 197.207031 221.996094 197.722656 222.210938 198.25 C 222.429688 198.773438 222.621094 199.308594 222.789062 199.851562 C 222.953125 200.398438 223.089844 200.949219 223.203125 201.507812 C 223.3125 202.066406 223.398438 202.628906 223.453125 203.195312 C 223.507812 203.761719 223.539062 204.328125 223.539062 204.898438 L 223.539062 255.265625 C 223.539062 255.582031 223.507812 255.894531 223.445312 256.203125 C 223.382812 256.515625 223.292969 256.816406 223.171875 257.109375 C 223.050781 257.402344 222.902344 257.679688 222.726562 257.941406 C 222.550781 258.203125 222.351562 258.449219 222.125 258.671875 C 221.902344 258.894531 221.660156 259.09375 221.394531 259.269531 C 221.132812 259.445312 220.855469 259.59375 220.5625 259.714844 C 220.269531 259.832031 219.96875 259.925781 219.65625 259.984375 C 219.347656 260.046875 219.035156 260.078125 218.71875 260.078125 L 211.457031 260.078125 L 208.109375 276.957031 C 209.296875 283.699219 206.492188 291.339844 200.691406 296.445312 C 195.78125 300.824219 190.417969 304.558594 184.609375 307.652344 C 195.128906 307.628906 205.433594 306.125 215.523438 303.144531 C 219.984375 300.386719 224.132812 297.214844 227.964844 293.628906 C 231.445312 290.226562 235.328125 287.367188 239.613281 285.054688 C 242.675781 283.40625 245.949219 282.554688 249.425781 282.5 C 250.839844 282.503906 252.234375 282.679688 253.601562 283.035156 C 254.960938 281.9375 256.296875 280.808594 257.601562 279.652344 C 258.910156 278.492188 260.1875 277.300781 261.4375 276.082031 C 262.6875 274.859375 263.910156 273.613281 265.101562 272.332031 C 266.292969 271.054688 267.453125 269.75 268.582031 268.417969 C 269.710938 267.082031 270.808594 265.722656 271.875 264.339844 C 272.9375 262.953125 273.96875 261.542969 274.96875 260.109375 C 275.964844 258.675781 276.929688 257.21875 277.859375 255.738281 C 278.785156 254.257812 279.679688 252.753906 280.539062 251.234375 C 281.394531 249.710938 282.214844 248.167969 283 246.605469 C 283.785156 245.046875 284.53125 243.464844 285.242188 241.871094 C 285.953125 240.273438 286.625 238.660156 287.257812 237.03125 C 287.890625 235.402344 288.484375 233.757812 289.039062 232.101562 C 289.59375 230.445312 290.109375 228.777344 290.585938 227.09375 C 291.0625 225.414062 291.5 223.722656 291.894531 222.019531 C 292.292969 220.316406 292.648438 218.605469 292.960938 216.886719 C 293.277344 215.167969 293.550781 213.441406 293.785156 211.710938 C 294.015625 209.976562 294.207031 208.242188 294.359375 206.5 C 294.511719 204.757812 294.621094 203.015625 294.6875 201.269531 C 294.753906 199.523438 294.78125 197.773438 294.769531 196.027344 C 294.753906 194.28125 294.695312 192.535156 294.597656 190.789062 C 294.5 189.042969 294.363281 187.300781 294.183594 185.5625 C 294.003906 183.824219 293.78125 182.089844 293.519531 180.363281 C 293.257812 178.636719 292.953125 176.914062 292.609375 175.203125 C 292.265625 173.488281 291.878906 171.785156 291.457031 170.089844 C 291.03125 168.394531 290.566406 166.707031 290.0625 165.035156 C 289.558594 163.363281 289.011719 161.703125 288.429688 160.054688 C 287.847656 158.40625 287.222656 156.773438 286.5625 155.15625 C 285.902344 153.539062 285.203125 151.9375 284.46875 150.351562 C 283.730469 148.769531 282.957031 147.203125 282.144531 145.65625 C 281.335938 144.105469 280.488281 142.578125 279.605469 141.070312 C 278.722656 139.5625 277.804688 138.078125 276.847656 136.613281 C 275.894531 135.148438 274.90625 133.707031 273.886719 132.292969 L 189.789062 9.777344 C 189.632812 9.546875 189.460938 9.332031 189.277344 9.121094 C 189.097656 8.914062 188.902344 8.71875 188.695312 8.535156 C 188.488281 8.351562 188.273438 8.179688 188.042969 8.023438 C 187.816406 7.867188 187.582031 7.722656 187.335938 7.59375 C 187.089844 7.464844 186.839844 7.351562 186.582031 7.253906 C 186.324219 7.152344 186.058594 7.070312 185.792969 7.003906 C 185.523438 6.9375 185.25 6.890625 184.976562 6.855469 C 184.703125 6.820312 184.425781 6.804688 184.152344 6.804688 C 183.875 6.804688 183.597656 6.820312 183.324219 6.855469 C 183.050781 6.890625 182.777344 6.9375 182.507812 7.003906 C 182.242188 7.070312 181.976562 7.152344 181.71875 7.253906 C 181.460938 7.351562 181.210938 7.464844 180.964844 7.59375 C 180.71875 7.722656 180.484375 7.867188 180.257812 8.023438 C 180.03125 8.179688 179.8125 8.351562 179.605469 8.535156 C 179.398438 8.71875 179.203125 8.914062 179.023438 9.121094 C 178.839844 9.332031 178.667969 9.546875 178.511719 9.777344 L 94.414062 132.292969 C 93.464844 133.609375 92.542969 134.949219 91.648438 136.308594 C 90.753906 137.664062 89.890625 139.042969 89.058594 140.441406 C 88.226562 141.839844 87.425781 143.253906 86.65625 144.6875 C 85.886719 146.117188 85.148438 147.566406 84.445312 149.03125 C 83.738281 150.5 83.066406 151.976562 82.425781 153.472656 C 81.785156 154.96875 81.179688 156.476562 80.605469 158 C 80.03125 159.519531 79.492188 161.054688 78.988281 162.601562 C 78.480469 164.144531 78.007812 165.703125 77.574219 167.269531 C 77.136719 168.835938 76.734375 170.410156 76.367188 171.996094 C 76 173.578125 75.667969 175.171875 75.371094 176.769531 C 75.074219 178.371094 74.8125 179.976562 74.585938 181.585938 C 74.359375 183.195312 74.167969 184.8125 74.015625 186.429688 C 73.859375 188.050781 73.742188 189.671875 73.65625 191.296875 C 73.574219 192.921875 73.527344 194.546875 73.515625 196.171875 C 73.503906 197.796875 73.53125 199.425781 73.589844 201.050781 C 73.652344 202.675781 73.75 204.296875 73.878906 205.917969 C 74.011719 207.539062 74.179688 209.15625 74.386719 210.773438 C 74.589844 212.386719 74.828125 213.992188 75.105469 215.597656 C 75.378906 217.199219 75.6875 218.796875 76.035156 220.386719 C 76.378906 221.976562 76.761719 223.554688 77.175781 225.128906 C 77.589844 226.699219 78.042969 228.261719 78.527344 229.816406 C 79.011719 231.367188 79.527344 232.910156 80.082031 234.4375 C 80.632812 235.96875 81.21875 237.484375 81.839844 238.988281 C 82.460938 240.492188 83.113281 241.980469 83.796875 243.457031 C 84.484375 244.929688 85.199219 246.390625 85.949219 247.832031 C 86.699219 249.277344 87.480469 250.703125 88.292969 252.109375 C 89.109375 253.519531 89.953125 254.910156 90.824219 256.28125 C 91.699219 257.652344 92.605469 259.003906 93.539062 260.332031 C 94.472656 261.664062 95.433594 262.976562 96.425781 264.261719 C 97.417969 265.550781 98.4375 266.816406 99.488281 268.0625 C 100.535156 269.304688 101.609375 270.523438 102.710938 271.71875 C 103.8125 272.914062 104.941406 274.085938 106.09375 275.234375 Z M 224.453125 153.929688 C 224.453125 153.339844 224.484375 152.75 224.546875 152.164062 C 224.605469 151.574219 224.699219 150.992188 224.820312 150.417969 C 224.941406 149.839844 225.09375 149.269531 225.277344 148.707031 C 225.457031 148.148438 225.667969 147.597656 225.90625 147.054688 C 226.144531 146.515625 226.410156 145.992188 226.703125 145.480469 C 227 144.96875 227.316406 144.472656 227.664062 143.996094 C 228.007812 143.515625 228.378906 143.058594 228.769531 142.617188 C 229.164062 142.175781 229.578125 141.757812 230.015625 141.363281 C 230.453125 140.964844 230.910156 140.59375 231.386719 140.246094 C 231.863281 139.894531 232.355469 139.574219 232.863281 139.277344 C 233.375 138.980469 233.898438 138.707031 234.433594 138.464844 C 234.972656 138.222656 235.519531 138.007812 236.082031 137.824219 C 236.640625 137.640625 237.207031 137.484375 237.785156 137.359375 C 238.359375 137.230469 238.941406 137.136719 239.527344 137.070312 C 240.113281 137.003906 240.703125 136.972656 241.292969 136.96875 C 241.882812 136.964844 242.46875 136.992188 243.058594 137.046875 C 251.867188 137.890625 258.324219 145.777344 258.324219 154.648438 L 258.324219 156.832031 C 258.324219 158.257812 258.148438 159.660156 257.792969 161.039062 C 257.441406 162.421875 256.921875 163.734375 256.234375 164.984375 C 255.550781 166.234375 254.722656 167.378906 253.746094 168.417969 C 252.773438 169.457031 251.683594 170.359375 250.484375 171.125 C 250.242188 171.289062 250.03125 171.484375 249.855469 171.714844 C 249.675781 171.941406 249.539062 172.195312 249.441406 172.46875 C 249.34375 172.742188 249.292969 173.027344 249.285156 173.316406 C 249.28125 173.609375 249.320312 173.894531 249.40625 174.171875 C 249.492188 174.449219 249.617188 174.707031 249.785156 174.941406 C 249.957031 175.179688 250.15625 175.386719 250.390625 175.558594 C 250.625 175.730469 250.882812 175.859375 251.160156 175.949219 C 251.4375 176.039062 251.71875 176.082031 252.011719 176.078125 L 258.300781 176.078125 C 259.203125 176.078125 260.097656 176.167969 260.984375 176.34375 C 261.871094 176.519531 262.730469 176.78125 263.5625 177.125 C 264.398438 177.472656 265.191406 177.894531 265.941406 178.398438 C 266.691406 178.898438 267.386719 179.46875 268.027344 180.109375 C 268.664062 180.75 269.234375 181.441406 269.734375 182.195312 C 270.238281 182.945312 270.660156 183.738281 271.007812 184.574219 C 271.351562 185.40625 271.613281 186.269531 271.789062 187.15625 C 271.964844 188.039062 272.054688 188.933594 272.054688 189.839844 L 272.054688 226.347656 C 272.054688 226.816406 272.007812 227.277344 271.917969 227.734375 C 271.824219 228.1875 271.691406 228.632812 271.511719 229.0625 C 271.335938 229.492188 271.117188 229.902344 270.859375 230.289062 C 270.601562 230.675781 270.304688 231.035156 269.976562 231.363281 C 269.648438 231.691406 269.289062 231.988281 268.902344 232.246094 C 268.515625 232.503906 268.105469 232.722656 267.675781 232.902344 C 267.246094 233.078125 266.804688 233.214844 266.347656 233.304688 C 265.890625 233.394531 265.429688 233.441406 264.964844 233.441406 L 262.488281 233.441406 L 260.667969 253.628906 C 256.074219 260.113281 250.742188 265.921875 244.679688 271.058594 C 238.613281 276.195312 232.007812 280.496094 224.859375 283.960938 L 223.242188 266.097656 C 224.308594 265.652344 225.285156 265.0625 226.175781 264.324219 C 227.066406 263.589844 227.832031 262.742188 228.472656 261.777344 C 229.113281 260.816406 229.597656 259.785156 229.933594 258.675781 C 230.269531 257.570312 230.4375 256.441406 230.441406 255.285156 L 230.441406 204.929688 C 230.4375 203.644531 230.335938 202.363281 230.128906 201.09375 C 229.925781 199.824219 229.621094 198.578125 229.21875 197.359375 C 228.816406 196.136719 228.320312 194.953125 227.730469 193.8125 C 227.140625 192.667969 226.460938 191.578125 225.699219 190.542969 C 224.9375 189.507812 224.097656 188.539062 223.179688 187.640625 C 222.261719 186.738281 221.28125 185.914062 220.234375 185.167969 C 219.183594 184.421875 218.085938 183.765625 216.933594 183.191406 C 215.78125 182.621094 214.589844 182.144531 213.363281 181.765625 C 213.996094 180.882812 214.726562 180.085938 215.546875 179.375 C 216.371094 178.664062 217.265625 178.0625 218.230469 177.566406 C 219.195312 177.066406 220.207031 176.691406 221.261719 176.433594 C 222.320312 176.175781 223.390625 176.046875 224.476562 176.046875 L 230.769531 176.046875 C 231.058594 176.046875 231.34375 176.003906 231.621094 175.914062 C 231.894531 175.828125 232.152344 175.695312 232.386719 175.523438 C 232.621094 175.351562 232.824219 175.148438 232.992188 174.910156 C 233.160156 174.671875 233.289062 174.417969 233.375 174.136719 C 233.457031 173.859375 233.5 173.574219 233.492188 173.285156 C 233.488281 172.992188 233.433594 172.710938 233.339844 172.4375 C 233.242188 172.164062 233.101562 171.910156 232.925781 171.679688 C 232.746094 171.449219 232.535156 171.253906 232.292969 171.09375 C 231.09375 170.328125 230.003906 169.425781 229.03125 168.386719 C 228.058594 167.347656 227.226562 166.203125 226.542969 164.953125 C 225.855469 163.703125 225.335938 162.386719 224.984375 161.007812 C 224.628906 159.625 224.453125 158.222656 224.453125 156.796875 Z M 149.484375 78.640625 L 171.226562 78.640625 L 171.226562 56.871094 L 197.074219 56.871094 L 197.074219 78.628906 L 218.804688 78.628906 L 218.804688 104.476562 L 197.074219 104.476562 L 197.074219 126.234375 L 171.226562 126.234375 L 171.226562 104.476562 L 149.484375 104.476562 Z M 149.484375 78.640625 " fill-opacity="1" fill-rule="nonzero"/></g><path fill="rgb(32.159424%, 38.038635%, 47.059631%)" d="M 206.65625 34.371094 L 243.375 87.835938 C 245.566406 89.039062 247.71875 90.304688 249.832031 91.636719 C 251.945312 92.964844 254.019531 94.359375 256.050781 95.816406 C 258.078125 97.277344 260.0625 98.792969 262 100.371094 C 263.9375 101.949219 265.824219 103.585938 267.664062 105.277344 C 269.5 106.972656 271.285156 108.71875 273.019531 110.519531 C 274.75 112.320312 276.425781 114.175781 278.042969 116.078125 C 279.664062 117.980469 281.222656 119.933594 282.726562 121.933594 C 284.226562 123.929688 285.664062 125.972656 287.039062 128.058594 C 288.417969 130.144531 289.730469 132.269531 290.976562 134.4375 C 292.222656 136.601562 293.402344 138.804688 294.515625 141.042969 C 295.628906 143.28125 296.675781 145.550781 297.648438 147.851562 C 298.625 150.152344 299.53125 152.480469 300.363281 154.839844 C 301.199219 157.195312 301.960938 159.574219 302.648438 161.976562 C 303.339844 164.378906 303.953125 166.800781 304.496094 169.242188 C 305.039062 171.683594 305.503906 174.136719 305.898438 176.605469 C 306.292969 179.074219 306.609375 181.554688 306.851562 184.039062 C 307.09375 186.527344 307.261719 189.023438 307.351562 191.519531 C 307.441406 194.019531 307.457031 196.515625 307.394531 199.015625 C 307.332031 201.515625 307.195312 204.011719 306.984375 206.5 C 306.769531 208.992188 306.480469 211.472656 306.117188 213.945312 C 305.753906 216.421875 305.316406 218.878906 304.804688 221.328125 C 304.289062 223.773438 303.703125 226.203125 303.042969 228.613281 C 302.382812 231.023438 301.648438 233.410156 300.839844 235.777344 C 300.035156 238.144531 299.160156 240.484375 298.210938 242.796875 C 297.261719 245.109375 296.246094 247.390625 295.15625 249.640625 C 294.070312 251.890625 292.917969 254.109375 291.695312 256.289062 C 290.472656 258.46875 289.1875 260.609375 287.835938 262.714844 C 286.484375 264.816406 285.066406 266.875 283.589844 268.890625 C 282.113281 270.90625 280.578125 272.875 278.980469 274.800781 C 277.382812 276.722656 275.730469 278.59375 274.019531 280.414062 C 272.308594 282.238281 270.546875 284.007812 268.726562 285.722656 C 266.910156 287.433594 265.039062 289.09375 263.121094 290.695312 C 263.230469 290.890625 263.363281 291.074219 263.460938 291.285156 C 263.710938 291.839844 263.941406 292.375 264.136719 292.976562 C 265.242188 292.785156 266.359375 292.691406 267.484375 292.691406 C 268.820312 292.65625 270.136719 292.804688 271.433594 293.136719 C 272.730469 293.46875 273.957031 293.972656 275.113281 294.648438 C 276.269531 295.324219 277.308594 296.144531 278.238281 297.109375 C 279.164062 298.074219 279.941406 299.148438 280.570312 300.328125 C 281.140625 301.425781 281.570312 302.574219 281.855469 303.777344 C 282.640625 303.875 283.414062 304.035156 284.171875 304.257812 C 284.933594 304.476562 285.671875 304.757812 286.386719 305.09375 C 287.101562 305.433594 287.789062 305.824219 288.441406 306.269531 C 289.09375 306.71875 289.710938 307.210938 290.285156 307.753906 C 290.859375 308.296875 291.390625 308.882812 291.875 309.511719 C 292.355469 310.136719 292.789062 310.800781 293.167969 311.496094 C 293.546875 312.191406 293.867188 312.910156 294.132812 313.65625 C 294.398438 314.402344 294.601562 315.164062 294.746094 315.945312 C 297.5625 313.339844 300.285156 310.636719 302.914062 307.839844 C 305.542969 305.042969 308.066406 302.15625 310.492188 299.183594 C 312.914062 296.207031 315.230469 293.148438 317.441406 290.011719 C 319.648438 286.871094 321.742188 283.660156 323.726562 280.371094 C 325.707031 277.085938 327.570312 273.734375 329.316406 270.3125 C 331.0625 266.894531 332.683594 263.421875 334.183594 259.886719 C 335.683594 256.355469 337.058594 252.773438 338.304688 249.144531 C 339.554688 245.511719 340.671875 241.84375 341.660156 238.132812 C 342.648438 234.425781 343.507812 230.6875 344.234375 226.917969 C 344.957031 223.148438 345.550781 219.355469 346.007812 215.546875 C 346.464844 211.734375 346.789062 207.910156 346.976562 204.078125 C 347.164062 200.242188 347.21875 196.40625 347.136719 192.570312 C 347.054688 188.730469 346.835938 184.902344 346.484375 181.078125 C 346.132812 177.257812 345.644531 173.449219 345.027344 169.664062 C 344.40625 165.875 343.652344 162.113281 342.765625 158.378906 C 341.878906 154.644531 340.863281 150.945312 339.71875 147.28125 C 338.570312 143.617188 337.296875 140 335.894531 136.425781 C 334.492188 132.851562 332.96875 129.332031 331.316406 125.867188 C 329.667969 122.402344 327.898438 119 326.007812 115.660156 C 324.117188 112.316406 322.113281 109.046875 319.992188 105.847656 C 317.871094 102.648438 315.640625 99.53125 313.300781 96.488281 C 310.957031 93.445312 308.515625 90.492188 305.964844 87.621094 C 303.417969 84.753906 300.769531 81.980469 298.023438 79.296875 C 295.28125 76.613281 292.445312 74.03125 289.515625 71.550781 C 286.589844 69.070312 283.582031 66.695312 280.484375 64.425781 C 277.390625 62.15625 274.222656 60 270.976562 57.953125 C 267.726562 55.90625 264.414062 53.980469 261.03125 52.167969 C 257.648438 50.355469 254.207031 48.667969 250.707031 47.097656 C 247.203125 45.53125 243.652344 44.085938 240.046875 42.769531 C 236.445312 41.453125 232.800781 40.265625 229.113281 39.203125 C 225.425781 38.144531 221.707031 37.214844 217.953125 36.417969 C 214.199219 35.621094 210.425781 34.957031 206.625 34.425781 Z M 206.65625 34.371094 " fill-opacity="1" fill-rule="nonzero"/><path fill="rgb(32.159424%, 38.038635%, 47.059631%)" d="M 84.089844 267.976562 C 82.820312 266.210938 81.597656 264.414062 80.425781 262.582031 C 79.25 260.75 78.125 258.890625 77.050781 257 C 75.976562 255.113281 74.949219 253.195312 73.976562 251.25 C 73.003906 249.304688 72.082031 247.335938 71.210938 245.34375 C 70.339844 243.351562 69.523438 241.335938 68.761719 239.300781 C 67.996094 237.265625 67.289062 235.207031 66.632812 233.136719 C 65.976562 231.0625 65.378906 228.972656 64.835938 226.867188 C 64.289062 224.761719 63.800781 222.640625 63.371094 220.511719 C 62.9375 218.378906 62.5625 216.238281 62.242188 214.085938 C 61.921875 211.933594 61.660156 209.777344 61.457031 207.609375 C 61.25 205.445312 61.105469 203.277344 61.015625 201.101562 C 60.925781 198.929688 60.890625 196.757812 60.917969 194.582031 C 60.941406 192.40625 61.023438 190.234375 61.164062 188.0625 C 61.300781 185.894531 61.5 183.726562 61.753906 181.570312 C 62.007812 179.410156 62.320312 177.257812 62.6875 175.113281 C 63.054688 172.96875 63.480469 170.835938 63.960938 168.714844 C 64.441406 166.59375 64.976562 164.488281 65.570312 162.394531 C 66.160156 160.304688 66.808594 158.226562 67.511719 156.167969 C 68.214844 154.109375 68.96875 152.074219 69.777344 150.054688 C 70.589844 148.035156 71.449219 146.039062 72.367188 144.066406 C 73.28125 142.09375 74.25 140.148438 75.265625 138.226562 C 76.285156 136.304688 77.351562 134.410156 78.472656 132.546875 C 79.589844 130.683594 80.757812 128.847656 81.972656 127.046875 C 83.1875 125.242188 84.449219 123.472656 85.757812 121.734375 C 87.066406 120 88.421875 118.300781 89.820312 116.632812 C 91.21875 114.96875 92.660156 113.34375 94.144531 111.753906 C 95.628906 110.167969 97.15625 108.621094 98.722656 107.113281 C 100.289062 105.605469 101.894531 104.140625 103.539062 102.71875 C 105.183594 101.292969 106.863281 99.917969 108.582031 98.582031 C 110.296875 97.25 112.050781 95.960938 113.835938 94.722656 C 115.621094 93.480469 117.4375 92.289062 119.285156 91.144531 C 121.132812 90 123.011719 88.90625 124.917969 87.859375 L 161.632812 34.394531 C 158.96875 34.765625 156.316406 35.203125 153.675781 35.707031 C 151.035156 36.210938 148.410156 36.78125 145.796875 37.414062 C 143.183594 38.046875 140.585938 38.746094 138.007812 39.507812 C 135.429688 40.269531 132.871094 41.097656 130.335938 41.984375 C 127.796875 42.875 125.28125 43.824219 122.792969 44.839844 C 120.300781 45.851562 117.835938 46.925781 115.398438 48.0625 C 112.960938 49.195312 110.554688 50.390625 108.175781 51.644531 C 105.796875 52.898438 103.449219 54.210938 101.136719 55.582031 C 98.820312 56.949219 96.542969 58.375 94.300781 59.859375 C 92.054688 61.34375 89.851562 62.878906 87.683594 64.472656 C 85.515625 66.0625 83.390625 67.707031 81.300781 69.40625 C 79.214844 71.101562 77.171875 72.847656 75.171875 74.648438 C 73.171875 76.445312 71.21875 78.292969 69.308594 80.1875 C 67.402344 82.082031 65.539062 84.023438 63.726562 86.007812 C 61.914062 87.996094 60.152344 90.027344 58.4375 92.097656 C 56.726562 94.171875 55.066406 96.289062 53.457031 98.445312 C 51.851562 100.601562 50.296875 102.792969 48.796875 105.027344 C 47.296875 107.261719 45.851562 109.527344 44.464844 111.832031 C 43.078125 114.136719 41.746094 116.472656 40.472656 118.84375 C 39.203125 121.214844 37.988281 123.613281 36.835938 126.042969 C 35.679688 128.476562 34.589844 130.933594 33.554688 133.414062 C 32.523438 135.898438 31.550781 138.40625 30.644531 140.941406 C 29.734375 143.472656 28.890625 146.023438 28.105469 148.597656 C 27.324219 151.171875 26.605469 153.765625 25.953125 156.375 C 25.296875 158.984375 24.707031 161.605469 24.183594 164.246094 C 23.65625 166.882812 23.199219 169.535156 22.804688 172.195312 C 22.410156 174.855469 22.082031 177.527344 21.820312 180.203125 C 21.558594 182.882812 21.363281 185.5625 21.230469 188.25 C 21.101562 190.9375 21.039062 193.625 21.042969 196.316406 C 21.046875 199.007812 21.113281 201.695312 21.25 204.382812 C 21.386719 207.070312 21.589844 209.75 21.855469 212.429688 C 22.125 215.105469 22.460938 217.773438 22.859375 220.433594 C 36.425781 238.800781 59.628906 257.273438 84.089844 267.976562 Z M 84.089844 267.976562 " fill-opacity="1" fill-rule="nonzero"/><path fill="rgb(3.529358%, 11.759949%, 24.708557%)" d="M 271.484375 315.988281 C 279.773438 304.246094 270.066406 292.734375 253.601562 307.367188 C 261.628906 297.796875 255.28125 285.859375 243.15625 292.035156 C 234.957031 296.214844 231.835938 302.304688 219.46875 309.875 C 191.117188 327.226562 157.433594 318.429688 148.589844 309.636719 C 170.082031 307.453125 183.277344 301.320312 195.480469 290.574219 C 205.292969 281.910156 203.320312 260.46875 166.167969 276.390625 C 108.035156 301.3125 46.980469 268.074219 26.054688 236.519531 C 26.890625 239.785156 27.828125 243.019531 28.867188 246.230469 C 29.902344 249.4375 31.039062 252.609375 32.273438 255.746094 C 33.503906 258.886719 34.835938 261.980469 36.261719 265.035156 C 37.6875 268.089844 39.203125 271.101562 40.816406 274.0625 C 42.425781 277.023438 44.128906 279.929688 45.921875 282.785156 C 47.710938 285.640625 49.589844 288.4375 51.554688 291.175781 C 53.519531 293.917969 55.570312 296.589844 57.699219 299.203125 C 59.828125 301.816406 62.039062 304.359375 64.328125 306.835938 C 66.617188 309.308594 68.976562 311.710938 71.414062 314.039062 C 73.851562 316.367188 76.359375 318.621094 78.933594 320.792969 C 81.511719 322.964844 84.152344 325.058594 86.855469 327.066406 C 89.5625 329.074219 92.328125 331 95.152344 332.835938 C 97.976562 334.675781 100.855469 336.425781 103.789062 338.085938 C 106.722656 339.742188 109.703125 341.3125 112.734375 342.785156 C 115.765625 344.261719 118.835938 345.640625 121.953125 346.921875 C 125.070312 348.207031 128.222656 349.394531 131.410156 350.484375 C 134.597656 351.570312 137.820312 352.558594 141.070312 353.449219 C 144.320312 354.339844 147.59375 355.125 150.894531 355.8125 C 154.191406 356.5 157.507812 357.082031 160.84375 357.5625 C 164.179688 358.042969 167.527344 358.417969 170.886719 358.691406 C 174.242188 358.964844 177.605469 359.132812 180.976562 359.199219 C 184.34375 359.261719 187.710938 359.222656 191.078125 359.078125 C 194.445312 358.933594 197.804688 358.683594 201.15625 358.332031 C 204.507812 357.980469 207.84375 357.523438 211.167969 356.964844 C 214.488281 356.402344 217.792969 355.742188 221.074219 354.976562 C 224.355469 354.214844 227.609375 353.347656 230.839844 352.382812 C 234.066406 351.414062 237.261719 350.351562 240.421875 349.1875 C 243.585938 348.023438 246.710938 346.761719 249.792969 345.402344 C 252.878906 344.042969 255.917969 342.59375 258.910156 341.046875 C 261.90625 339.5 264.847656 337.863281 267.742188 336.132812 C 270.632812 334.40625 273.472656 332.589844 276.25 330.683594 C 279.03125 328.777344 281.75 326.789062 284.40625 324.714844 C 291.976562 318.289062 283.109375 304.410156 271.484375 315.988281 Z M 271.484375 315.988281 " fill-opacity="1" fill-rule="nonzero"/></svg>