<?xml version="1.0" encoding="UTF-8"?><svg xmlns="http://www.w3.org/2000/svg" xmlns:xlink="http://www.w3.org/1999/xlink" contentScriptType="text/ecmascript" width="375" zoomAndPan="magnify" contentStyleType="text/css" viewBox="0 0 375 374.999991" height="374.999991" preserveAspectRatio="xMidYMid meet" version="1.0"><defs><clipPath id="clip-0"><path d="M 108 61.933594 L 263 61.933594 L 263 272 L 108 272 Z M 108 61.933594 " clip-rule="nonzero"/></clipPath></defs><g clip-path="url(#clip-0)"><path fill="rgb(100%, 100%, 100%)" d="M 131.011719 248.492188 C 135.007812 249.402344 139.054688 249.871094 143.152344 249.90625 C 144.988281 249.90625 146.816406 249.8125 148.632812 249.667969 C 142.371094 245.445312 137.003906 240.292969 132.53125 234.214844 L 131.214844 219.449219 L 129.492188 219.449219 C 129.171875 219.449219 128.847656 219.417969 128.53125 219.351562 C 128.214844 219.289062 127.90625 219.195312 127.605469 219.074219 C 127.308594 218.949219 127.023438 218.796875 126.753906 218.617188 C 126.484375 218.4375 126.234375 218.234375 126.007812 218.003906 C 125.777344 217.773438 125.574219 217.527344 125.394531 217.257812 C 125.214844 216.988281 125.0625 216.703125 124.9375 216.40625 C 124.8125 216.105469 124.71875 215.796875 124.65625 215.480469 C 124.59375 215.164062 124.5625 214.84375 124.5625 214.519531 L 124.5625 189.121094 C 124.5625 188.492188 124.621094 187.871094 124.746094 187.253906 C 124.867188 186.636719 125.046875 186.039062 125.289062 185.460938 C 125.527344 184.878906 125.824219 184.328125 126.171875 183.804688 C 126.519531 183.285156 126.917969 182.800781 127.363281 182.355469 C 127.804688 181.910156 128.289062 181.515625 128.8125 181.167969 C 129.335938 180.816406 129.886719 180.523438 130.46875 180.285156 C 131.046875 180.042969 131.648438 179.863281 132.261719 179.738281 C 132.878906 179.617188 133.503906 179.558594 134.128906 179.558594 L 138.507812 179.558594 C 138.925781 179.5625 139.300781 179.441406 139.636719 179.195312 C 139.96875 178.949219 140.199219 178.628906 140.320312 178.230469 C 140.445312 177.835938 140.4375 177.441406 140.296875 177.046875 C 140.160156 176.65625 139.917969 176.34375 139.570312 176.113281 C 138.734375 175.582031 137.976562 174.957031 137.300781 174.234375 C 136.621094 173.511719 136.042969 172.714844 135.566406 171.847656 C 135.089844 170.976562 134.730469 170.0625 134.484375 169.105469 C 134.238281 168.144531 134.113281 167.171875 134.113281 166.179688 L 134.113281 164.183594 C 134.113281 163.363281 134.199219 162.550781 134.371094 161.742188 C 134.539062 160.9375 134.792969 160.160156 135.125 159.410156 C 135.457031 158.65625 135.867188 157.945312 136.347656 157.28125 C 136.832031 156.613281 137.375 156.003906 137.984375 155.453125 C 138.59375 154.898438 139.257812 154.414062 139.96875 154 C 140.679688 153.585938 141.425781 153.25 142.207031 152.992188 C 142.988281 152.734375 143.785156 152.558594 144.605469 152.46875 C 145.421875 152.378906 146.242188 152.371094 147.058594 152.453125 C 153.191406 153.035156 157.683594 158.519531 157.683594 164.6875 L 157.683594 166.203125 C 157.683594 167.191406 157.5625 168.167969 157.316406 169.128906 C 157.070312 170.085938 156.707031 171 156.230469 171.871094 C 155.753906 172.738281 155.175781 173.53125 154.5 174.253906 C 153.820312 174.976562 153.0625 175.605469 152.226562 176.136719 C 151.886719 176.371094 151.648438 176.683594 151.515625 177.074219 C 151.378906 177.464844 151.375 177.855469 151.496094 178.25 C 151.617188 178.644531 151.847656 178.964844 152.179688 179.210938 C 152.511719 179.457031 152.882812 179.578125 153.296875 179.582031 L 157.675781 179.582031 C 158.433594 179.582031 159.175781 179.671875 159.910156 179.851562 C 160.644531 180.027344 161.347656 180.289062 162.023438 180.636719 C 162.695312 180.980469 163.316406 181.398438 163.886719 181.894531 C 164.460938 182.386719 164.96875 182.941406 165.410156 183.554688 C 164.554688 183.820312 163.726562 184.152344 162.925781 184.546875 C 162.121094 184.945312 161.359375 185.402344 160.628906 185.917969 C 159.898438 186.4375 159.214844 187.011719 158.578125 187.636719 C 157.941406 188.265625 157.355469 188.9375 156.824219 189.65625 C 156.292969 190.375 155.824219 191.132812 155.414062 191.925781 C 155 192.722656 154.65625 193.542969 154.375 194.390625 C 154.09375 195.242188 153.882812 196.105469 153.742188 196.988281 C 153.597656 197.871094 153.527344 198.761719 153.527344 199.65625 L 153.527344 234.617188 C 153.527344 235.417969 153.644531 236.203125 153.878906 236.972656 C 154.109375 237.742188 154.449219 238.460938 154.894531 239.128906 C 155.339844 239.796875 155.875 240.386719 156.492188 240.898438 C 157.113281 241.410156 157.792969 241.820312 158.535156 242.132812 L 157.972656 248.351562 C 161.457031 247.605469 164.859375 246.59375 168.1875 245.316406 L 166.734375 237.96875 L 161.683594 237.96875 C 161.238281 237.96875 160.808594 237.882812 160.398438 237.714844 C 159.988281 237.542969 159.625 237.300781 159.308594 236.988281 C 158.992188 236.671875 158.75 236.3125 158.582031 235.898438 C 158.414062 235.488281 158.328125 235.058594 158.328125 234.617188 L 158.328125 199.632812 C 158.328125 198.839844 158.40625 198.054688 158.5625 197.277344 C 158.71875 196.5 158.945312 195.742188 159.25 195.011719 C 159.554688 194.277344 159.925781 193.582031 160.367188 192.921875 C 160.808594 192.265625 161.3125 191.65625 161.871094 191.09375 C 162.433594 190.535156 163.042969 190.03125 163.703125 189.59375 C 164.363281 189.152344 165.058594 188.78125 165.792969 188.476562 C 166.527344 188.175781 167.28125 187.945312 168.058594 187.789062 C 168.835938 187.636719 169.625 187.558594 170.417969 187.558594 L 175.949219 187.558594 C 176.472656 187.5625 176.945312 187.410156 177.371094 187.097656 C 177.792969 186.789062 178.082031 186.382812 178.238281 185.882812 C 178.394531 185.382812 178.386719 184.882812 178.210938 184.386719 C 178.039062 183.894531 177.734375 183.5 177.300781 183.207031 C 176.242188 182.535156 175.285156 181.742188 174.429688 180.828125 C 173.570312 179.917969 172.839844 178.910156 172.238281 177.816406 C 171.636719 176.71875 171.179688 175.5625 170.867188 174.351562 C 170.554688 173.136719 170.402344 171.90625 170.402344 170.652344 L 170.402344 168.105469 C 170.402344 167.128906 170.496094 166.160156 170.6875 165.203125 C 170.878906 164.246094 171.160156 163.3125 171.535156 162.410156 C 171.910156 161.507812 172.367188 160.652344 172.914062 159.839844 C 173.457031 159.027344 174.074219 158.273438 174.765625 157.585938 C 175.457031 156.894531 176.210938 156.277344 177.023438 155.734375 C 177.835938 155.191406 178.695312 154.734375 179.597656 154.363281 C 180.5 153.988281 181.433594 153.707031 182.390625 153.515625 C 183.351562 153.328125 184.320312 153.234375 185.296875 153.234375 C 185.371094 153.234375 185.449219 153.234375 185.523438 153.234375 C 185.601562 153.234375 185.675781 153.234375 185.75 153.234375 C 186.730469 153.234375 187.699219 153.328125 188.65625 153.515625 C 189.617188 153.707031 190.550781 153.988281 191.453125 154.359375 C 192.355469 154.734375 193.214844 155.191406 194.03125 155.734375 C 194.84375 156.273438 195.597656 156.890625 196.289062 157.582031 C 196.980469 158.273438 197.597656 159.023438 198.140625 159.835938 C 198.6875 160.648438 199.144531 161.507812 199.519531 162.410156 C 199.894531 163.3125 200.175781 164.242188 200.367188 165.203125 C 200.558594 166.160156 200.65625 167.128906 200.65625 168.105469 L 200.65625 170.632812 C 200.65625 171.882812 200.5 173.113281 200.191406 174.328125 C 199.878906 175.539062 199.425781 176.695312 198.824219 177.792969 C 198.21875 178.886719 197.492188 179.894531 196.632812 180.804688 C 195.777344 181.71875 194.820312 182.511719 193.765625 183.183594 C 193.332031 183.476562 193.027344 183.871094 192.851562 184.363281 C 192.679688 184.859375 192.667969 185.355469 192.824219 185.855469 C 192.976562 186.355469 193.265625 186.761719 193.6875 187.074219 C 194.109375 187.382812 194.582031 187.539062 195.109375 187.535156 L 200.648438 187.535156 C 201.441406 187.535156 202.226562 187.613281 203.003906 187.765625 C 203.78125 187.921875 204.539062 188.152344 205.269531 188.453125 C 206.003906 188.757812 206.699219 189.128906 207.359375 189.570312 C 208.019531 190.011719 208.628906 190.511719 209.191406 191.070312 C 209.753906 191.632812 210.253906 192.242188 210.695312 192.902344 C 211.136719 193.558594 211.507812 194.253906 211.8125 194.988281 C 212.117188 195.71875 212.347656 196.476562 212.5 197.253906 C 212.65625 198.03125 212.734375 198.816406 212.734375 199.609375 L 212.734375 234.617188 C 212.734375 235.058594 212.648438 235.488281 212.480469 235.898438 C 212.308594 236.308594 212.066406 236.667969 211.753906 236.984375 C 211.4375 237.296875 211.074219 237.539062 210.664062 237.707031 C 210.253906 237.875 209.824219 237.960938 209.382812 237.960938 L 204.328125 237.960938 L 201.996094 249.691406 C 202.824219 254.378906 200.875 259.6875 196.839844 263.238281 C 193.417969 266.28125 189.6875 268.875 185.644531 271.023438 C 192.964844 271.007812 200.136719 269.964844 207.15625 267.894531 C 210.261719 265.976562 213.148438 263.769531 215.816406 261.28125 C 218.238281 258.914062 220.941406 256.925781 223.917969 255.320312 C 226.050781 254.175781 228.328125 253.585938 230.75 253.542969 C 231.734375 253.546875 232.703125 253.671875 233.65625 253.917969 C 234.601562 253.152344 235.53125 252.371094 236.4375 251.566406 C 237.347656 250.757812 238.238281 249.929688 239.109375 249.082031 C 239.980469 248.234375 240.828125 247.367188 241.65625 246.480469 C 242.484375 245.589844 243.292969 244.683594 244.078125 243.757812 C 244.863281 242.828125 245.628906 241.882812 246.371094 240.921875 C 247.109375 239.960938 247.828125 238.980469 248.523438 237.980469 C 249.21875 236.984375 249.886719 235.972656 250.535156 234.945312 C 251.179688 233.914062 251.800781 232.871094 252.398438 231.8125 C 252.996094 230.753906 253.566406 229.683594 254.113281 228.597656 C 254.660156 227.511719 255.179688 226.414062 255.671875 225.304688 C 256.167969 224.195312 256.632812 223.074219 257.074219 221.941406 C 257.515625 220.8125 257.929688 219.667969 258.316406 218.515625 C 258.703125 217.367188 259.058594 216.207031 259.390625 215.035156 C 259.722656 213.867188 260.027344 212.691406 260.300781 211.507812 C 260.578125 210.324219 260.824219 209.136719 261.042969 207.941406 C 261.261719 206.746094 261.453125 205.546875 261.617188 204.34375 C 261.777344 203.140625 261.910156 201.933594 262.015625 200.722656 C 262.121094 199.511719 262.199219 198.300781 262.246094 197.085938 C 262.292969 195.875 262.3125 194.660156 262.300781 193.445312 C 262.289062 192.230469 262.25 191.015625 262.183594 189.804688 C 262.113281 188.589844 262.019531 187.378906 261.894531 186.171875 C 261.769531 184.964844 261.613281 183.757812 261.429688 182.558594 C 261.25 181.355469 261.039062 180.160156 260.796875 178.96875 C 260.558594 177.777344 260.292969 176.59375 259.996094 175.417969 C 259.699219 174.238281 259.378906 173.066406 259.027344 171.90625 C 258.675781 170.742188 258.296875 169.585938 257.890625 168.441406 C 257.484375 167.296875 257.050781 166.164062 256.589844 165.039062 C 256.132812 163.914062 255.644531 162.800781 255.132812 161.699219 C 254.621094 160.597656 254.082031 159.511719 253.519531 158.433594 C 252.953125 157.359375 252.363281 156.296875 251.75 155.25 C 251.132812 154.199219 250.496094 153.167969 249.832031 152.152344 C 249.167969 151.132812 248.480469 150.132812 247.769531 149.148438 L 189.25 63.996094 C 189.03125 63.679688 188.777344 63.390625 188.488281 63.132812 C 188.199219 62.878906 187.886719 62.660156 187.542969 62.480469 C 187.203125 62.300781 186.84375 62.164062 186.46875 62.070312 C 186.09375 61.976562 185.714844 61.929688 185.328125 61.929688 C 184.941406 61.929688 184.558594 61.976562 184.183594 62.070312 C 183.808594 62.164062 183.453125 62.300781 183.109375 62.480469 C 182.769531 62.660156 182.453125 62.878906 182.164062 63.132812 C 181.875 63.390625 181.621094 63.679688 181.402344 63.996094 L 122.886719 149.148438 C 121.558594 150.980469 120.316406 152.867188 119.15625 154.8125 C 118 156.753906 116.929688 158.746094 115.945312 160.78125 C 114.964844 162.820312 114.074219 164.898438 113.273438 167.015625 C 112.476562 169.128906 111.773438 171.277344 111.164062 173.457031 C 110.554688 175.636719 110.046875 177.835938 109.632812 180.0625 C 109.21875 182.285156 108.902344 184.523438 108.6875 186.773438 C 108.472656 189.027344 108.359375 191.28125 108.34375 193.546875 C 108.328125 195.808594 108.410156 198.066406 108.59375 200.320312 C 108.78125 202.574219 109.0625 204.816406 109.445312 207.046875 C 109.828125 209.273438 110.308594 211.484375 110.886719 213.671875 C 111.46875 215.855469 112.140625 218.015625 112.910156 220.140625 C 113.679688 222.269531 114.542969 224.359375 115.496094 226.410156 C 116.449219 228.460938 117.492188 230.464844 118.625 232.421875 C 119.757812 234.382812 120.972656 236.289062 122.273438 238.140625 C 123.574219 239.988281 124.953125 241.78125 126.414062 243.507812 C 127.871094 245.238281 129.40625 246.898438 131.011719 248.492188 Z M 213.371094 164.183594 C 213.371094 163.363281 213.457031 162.550781 213.628906 161.742188 C 213.796875 160.9375 214.050781 160.160156 214.382812 159.410156 C 214.714844 158.65625 215.125 157.945312 215.605469 157.28125 C 216.085938 156.613281 216.632812 156.003906 217.242188 155.453125 C 217.851562 154.898438 218.511719 154.414062 219.222656 154 C 219.933594 153.585938 220.679688 153.25 221.460938 152.992188 C 222.246094 152.734375 223.042969 152.558594 223.863281 152.46875 C 224.679688 152.378906 225.5 152.371094 226.316406 152.453125 C 232.449219 153.035156 236.941406 158.519531 236.941406 164.6875 L 236.941406 166.203125 C 236.941406 167.191406 236.820312 168.167969 236.574219 169.128906 C 236.328125 170.085938 235.964844 171 235.488281 171.871094 C 235.011719 172.738281 234.433594 173.53125 233.757812 174.253906 C 233.078125 174.976562 232.320312 175.605469 231.484375 176.136719 C 231.140625 176.367188 230.898438 176.679688 230.757812 177.070312 C 230.621094 177.460938 230.613281 177.855469 230.734375 178.253906 C 230.855469 178.652344 231.085938 178.972656 231.421875 179.21875 C 231.757812 179.460938 232.132812 179.582031 232.546875 179.582031 L 236.925781 179.582031 C 237.554688 179.582031 238.175781 179.640625 238.792969 179.765625 C 239.410156 179.886719 240.007812 180.066406 240.585938 180.308594 C 241.167969 180.546875 241.71875 180.84375 242.242188 181.191406 C 242.765625 181.539062 243.246094 181.9375 243.691406 182.382812 C 244.136719 182.824219 244.53125 183.308594 244.882812 183.832031 C 245.230469 184.351562 245.527344 184.902344 245.765625 185.484375 C 246.007812 186.0625 246.1875 186.660156 246.308594 187.277344 C 246.433594 187.894531 246.496094 188.515625 246.496094 189.144531 L 246.496094 214.519531 C 246.496094 214.84375 246.460938 215.164062 246.398438 215.480469 C 246.335938 215.796875 246.242188 216.105469 246.117188 216.40625 C 245.996094 216.703125 245.84375 216.988281 245.664062 217.257812 C 245.484375 217.527344 245.277344 217.773438 245.050781 218.003906 C 244.820312 218.234375 244.570312 218.4375 244.300781 218.617188 C 244.03125 218.796875 243.75 218.949219 243.449219 219.074219 C 243.148438 219.195312 242.84375 219.289062 242.523438 219.351562 C 242.207031 219.417969 241.886719 219.449219 241.5625 219.449219 L 239.839844 219.449219 L 238.574219 233.476562 C 235.375 237.984375 231.664062 242.023438 227.445312 245.59375 C 223.226562 249.164062 218.628906 252.152344 213.652344 254.5625 L 212.53125 242.144531 C 213.269531 241.835938 213.949219 241.425781 214.570312 240.914062 C 215.191406 240.402344 215.722656 239.8125 216.167969 239.144531 C 216.613281 238.476562 216.953125 237.757812 217.1875 236.988281 C 217.417969 236.21875 217.535156 235.433594 217.539062 234.628906 L 217.539062 199.632812 C 217.535156 198.738281 217.464844 197.847656 217.320312 196.964844 C 217.179688 196.085938 216.96875 195.21875 216.6875 194.371094 C 216.40625 193.519531 216.0625 192.699219 215.652344 191.902344 C 215.242188 191.109375 214.769531 190.351562 214.238281 189.632812 C 213.707031 188.914062 213.125 188.242188 212.484375 187.613281 C 211.847656 186.988281 211.164062 186.414062 210.433594 185.898438 C 209.707031 185.378906 208.941406 184.921875 208.140625 184.523438 C 207.335938 184.128906 206.507812 183.796875 205.65625 183.53125 C 206.097656 182.917969 206.601562 182.363281 207.175781 181.871094 C 207.746094 181.378906 208.371094 180.957031 209.042969 180.613281 C 209.714844 180.265625 210.417969 180.003906 211.152344 179.828125 C 211.886719 179.648438 212.632812 179.558594 213.386719 179.558594 L 217.765625 179.558594 C 218.179688 179.5625 218.558594 179.441406 218.890625 179.195312 C 219.226562 178.949219 219.457031 178.628906 219.578125 178.230469 C 219.703125 177.835938 219.691406 177.441406 219.554688 177.046875 C 219.414062 176.65625 219.171875 176.34375 218.828125 176.113281 C 217.992188 175.582031 217.234375 174.957031 216.558594 174.234375 C 215.878906 173.511719 215.300781 172.714844 214.824219 171.847656 C 214.347656 170.976562 213.988281 170.0625 213.742188 169.105469 C 213.496094 168.144531 213.371094 167.171875 213.371094 166.179688 Z M 161.203125 111.855469 L 176.335938 111.855469 L 176.335938 96.726562 L 194.320312 96.726562 L 194.320312 111.847656 L 209.441406 111.847656 L 209.441406 129.816406 L 194.320312 129.816406 L 194.320312 144.9375 L 176.335938 144.9375 L 176.335938 129.816406 L 161.203125 129.816406 Z M 161.203125 111.855469 " fill-opacity="1" fill-rule="nonzero"/></g><path fill="rgb(85.099792%, 85.099792%, 85.099792%)" d="M 200.988281 81.089844 L 226.539062 118.25 C 228.0625 119.085938 229.5625 119.964844 231.03125 120.890625 C 232.503906 121.816406 233.945312 122.785156 235.359375 123.796875 C 236.769531 124.808594 238.152344 125.863281 239.5 126.960938 C 240.847656 128.058594 242.160156 129.195312 243.441406 130.371094 C 244.71875 131.546875 245.960938 132.761719 247.164062 134.015625 C 248.371094 135.269531 249.535156 136.554688 250.664062 137.878906 C 251.789062 139.203125 252.875 140.558594 253.921875 141.945312 C 254.964844 143.335938 255.964844 144.753906 256.921875 146.203125 C 257.882812 147.65625 258.792969 149.132812 259.660156 150.636719 C 260.53125 152.144531 261.351562 153.675781 262.125 155.230469 C 262.902344 156.785156 263.628906 158.363281 264.304688 159.960938 C 264.984375 161.5625 265.613281 163.179688 266.195312 164.816406 C 266.773438 166.457031 267.304688 168.109375 267.785156 169.777344 C 268.265625 171.449219 268.691406 173.132812 269.070312 174.828125 C 269.445312 176.523438 269.773438 178.230469 270.046875 179.945312 C 270.320312 181.660156 270.539062 183.382812 270.707031 185.113281 C 270.878906 186.84375 270.992188 188.574219 271.054688 190.3125 C 271.121094 192.046875 271.128906 193.785156 271.085938 195.523438 C 271.042969 197.257812 270.949219 198.992188 270.800781 200.722656 C 270.652344 202.453125 270.453125 204.179688 270.199219 205.898438 C 269.945312 207.617188 269.640625 209.328125 269.285156 211.027344 C 268.925781 212.726562 268.519531 214.417969 268.058594 216.09375 C 267.597656 217.765625 267.089844 219.425781 266.527344 221.070312 C 265.964844 222.714844 265.355469 224.34375 264.695312 225.949219 C 264.035156 227.558594 263.328125 229.144531 262.570312 230.707031 C 261.816406 232.273438 261.011719 233.8125 260.160156 235.328125 C 259.3125 236.84375 258.417969 238.332031 257.476562 239.792969 C 256.535156 241.253906 255.550781 242.683594 254.523438 244.085938 C 253.496094 245.488281 252.425781 246.855469 251.316406 248.191406 C 250.203125 249.527344 249.054688 250.828125 247.863281 252.097656 C 246.671875 253.363281 245.445312 254.589844 244.179688 255.785156 C 242.914062 256.976562 241.613281 258.128906 240.28125 259.238281 C 240.355469 259.375 240.445312 259.503906 240.515625 259.648438 C 240.6875 260.035156 240.847656 260.40625 240.984375 260.824219 C 241.757812 260.691406 242.53125 260.625 243.316406 260.628906 C 244.246094 260.605469 245.160156 260.707031 246.0625 260.9375 C 246.964844 261.167969 247.820312 261.519531 248.625 261.988281 C 249.425781 262.457031 250.152344 263.027344 250.796875 263.699219 C 251.441406 264.367188 251.984375 265.113281 252.421875 265.9375 C 252.816406 266.699219 253.117188 267.496094 253.316406 268.332031 C 254.414062 268.472656 255.464844 268.777344 256.46875 269.25 C 257.472656 269.722656 258.375 270.335938 259.179688 271.097656 C 259.988281 271.859375 260.65625 272.722656 261.1875 273.695312 C 261.714844 274.667969 262.082031 275.699219 262.285156 276.789062 C 264.246094 274.976562 266.140625 273.101562 267.96875 271.15625 C 269.796875 269.214844 271.554688 267.207031 273.242188 265.140625 C 274.929688 263.070312 276.539062 260.945312 278.078125 258.765625 C 279.613281 256.582031 281.070312 254.351562 282.449219 252.066406 C 283.828125 249.78125 285.125 247.453125 286.339844 245.074219 C 287.554688 242.699219 288.683594 240.285156 289.726562 237.828125 C 290.773438 235.371094 291.730469 232.882812 292.597656 230.359375 C 293.464844 227.835938 294.242188 225.289062 294.929688 222.710938 C 295.621094 220.132812 296.214844 217.53125 296.71875 214.914062 C 297.226562 212.292969 297.636719 209.660156 297.957031 207.011719 C 298.273438 204.359375 298.5 201.703125 298.628906 199.039062 C 298.761719 196.375 298.796875 193.707031 298.742188 191.042969 C 298.683594 188.375 298.53125 185.710938 298.289062 183.054688 C 298.042969 180.398438 297.703125 177.753906 297.273438 175.121094 C 296.839844 172.488281 296.316406 169.875 295.699219 167.277344 C 295.085938 164.679688 294.375 162.109375 293.578125 159.5625 C 292.78125 157.019531 291.894531 154.503906 290.917969 152.019531 C 289.945312 149.535156 288.882812 147.089844 287.734375 144.683594 C 286.585938 142.273438 285.355469 139.90625 284.039062 137.585938 C 282.722656 135.265625 281.328125 132.992188 279.851562 130.769531 C 278.375 128.546875 276.824219 126.375 275.195312 124.261719 C 273.566406 122.148438 271.867188 120.09375 270.09375 118.101562 C 268.320312 116.105469 266.476562 114.179688 264.566406 112.3125 C 262.65625 110.449219 260.683594 108.65625 258.648438 106.929688 C 256.609375 105.207031 254.515625 103.554688 252.363281 101.976562 C 250.210938 100.402344 248.003906 98.902344 245.742188 97.480469 C 243.484375 96.058594 241.179688 94.71875 238.824219 93.460938 C 236.472656 92.199219 234.078125 91.027344 231.640625 89.9375 C 229.203125 88.847656 226.730469 87.84375 224.222656 86.925781 C 221.714844 86.011719 219.179688 85.1875 216.613281 84.449219 C 214.046875 83.710938 211.460938 83.066406 208.847656 82.511719 C 206.238281 81.957031 203.609375 81.496094 200.964844 81.128906 Z M 200.988281 81.089844 " fill-opacity="1" fill-rule="nonzero"/><path fill="rgb(85.099792%, 85.099792%, 85.099792%)" d="M 115.699219 243.449219 C 114.816406 242.222656 113.964844 240.972656 113.148438 239.703125 C 112.332031 238.429688 111.550781 237.136719 110.800781 235.824219 C 110.054688 234.507812 109.339844 233.175781 108.660156 231.824219 C 107.984375 230.472656 107.34375 229.105469 106.738281 227.722656 C 106.132812 226.335938 105.5625 224.933594 105.03125 223.519531 C 104.5 222.105469 104.007812 220.675781 103.550781 219.234375 C 103.097656 217.792969 102.679688 216.339844 102.300781 214.878906 C 101.921875 213.414062 101.582031 211.941406 101.28125 210.460938 C 100.980469 208.980469 100.71875 207.492188 100.496094 205.996094 C 100.273438 204.5 100.09375 203 99.949219 201.496094 C 99.808594 199.992188 99.703125 198.484375 99.640625 196.972656 C 99.578125 195.460938 99.558594 193.953125 99.574219 192.441406 C 99.589844 190.929688 99.648438 189.417969 99.746094 187.910156 C 99.84375 186.402344 99.980469 184.898438 100.15625 183.394531 C 100.332031 181.894531 100.550781 180.398438 100.804688 178.910156 C 101.0625 177.417969 101.359375 175.9375 101.691406 174.464844 C 102.027344 172.988281 102.398438 171.523438 102.8125 170.070312 C 103.222656 168.617188 103.675781 167.171875 104.164062 165.742188 C 104.652344 164.3125 105.175781 162.894531 105.742188 161.492188 C 106.304688 160.089844 106.90625 158.703125 107.542969 157.332031 C 108.179688 155.960938 108.851562 154.605469 109.558594 153.273438 C 110.269531 151.9375 111.011719 150.621094 111.789062 149.324219 C 112.566406 148.027344 113.378906 146.753906 114.226562 145.5 C 115.070312 144.246094 115.949219 143.015625 116.859375 141.808594 C 117.769531 140.605469 118.714844 139.421875 119.6875 138.265625 C 120.660156 137.109375 121.664062 135.976562 122.695312 134.875 C 123.730469 133.769531 124.792969 132.695312 125.882812 131.644531 C 126.972656 130.597656 128.089844 129.582031 129.234375 128.59375 C 130.378906 127.601562 131.546875 126.644531 132.742188 125.71875 C 133.9375 124.792969 135.15625 123.898438 136.398438 123.035156 C 137.640625 122.171875 138.902344 121.34375 140.191406 120.546875 C 141.476562 119.753906 142.78125 118.992188 144.109375 118.265625 L 169.65625 81.105469 C 167.804688 81.363281 165.960938 81.667969 164.121094 82.019531 C 162.285156 82.371094 160.457031 82.765625 158.636719 83.207031 C 156.820312 83.644531 155.011719 84.132812 153.21875 84.660156 C 151.425781 85.191406 149.644531 85.765625 147.878906 86.382812 C 146.113281 87 144.363281 87.660156 142.628906 88.363281 C 140.898438 89.070312 139.183594 89.816406 137.484375 90.605469 C 135.789062 91.394531 134.113281 92.222656 132.457031 93.09375 C 130.804688 93.964844 129.171875 94.878906 127.5625 95.832031 C 125.949219 96.78125 124.363281 97.773438 122.804688 98.804688 C 121.242188 99.835938 119.707031 100.902344 118.199219 102.011719 C 116.691406 103.117188 115.210938 104.257812 113.761719 105.4375 C 112.308594 106.617188 110.886719 107.832031 109.496094 109.082031 C 108.101562 110.332031 106.742188 111.617188 105.414062 112.933594 C 104.085938 114.25 102.792969 115.597656 101.53125 116.980469 C 100.269531 118.359375 99.042969 119.769531 97.851562 121.210938 C 96.660156 122.652344 95.503906 124.125 94.382812 125.621094 C 93.265625 127.121094 92.183594 128.644531 91.140625 130.199219 C 90.097656 131.75 89.089844 133.328125 88.125 134.929688 C 87.160156 136.53125 86.234375 138.152344 85.347656 139.800781 C 84.464844 141.449219 83.621094 143.117188 82.816406 144.804688 C 82.015625 146.492188 81.253906 148.203125 80.535156 149.929688 C 79.816406 151.65625 79.140625 153.398438 78.507812 155.15625 C 77.875 156.917969 77.289062 158.691406 76.742188 160.480469 C 76.199219 162.269531 75.699219 164.070312 75.242188 165.882812 C 74.789062 167.699219 74.378906 169.523438 74.011719 171.355469 C 73.648438 173.191406 73.328125 175.03125 73.054688 176.882812 C 72.78125 178.730469 72.550781 180.585938 72.367188 182.445312 C 72.1875 184.308594 72.050781 186.171875 71.960938 188.039062 C 71.871094 189.90625 71.824219 191.777344 71.828125 193.644531 C 71.828125 195.515625 71.878906 197.382812 71.972656 199.25 C 72.066406 201.121094 72.207031 202.984375 72.394531 204.84375 C 72.582031 206.703125 72.8125 208.558594 73.09375 210.40625 C 82.53125 223.171875 98.679688 236.011719 115.699219 243.449219 Z M 115.699219 243.449219 " fill-opacity="1" fill-rule="nonzero"/><path fill="rgb(100%, 100%, 100%)" d="M 246.101562 276.820312 C 251.867188 268.660156 245.113281 260.65625 233.65625 270.828125 C 239.238281 264.175781 234.824219 255.878906 226.386719 260.171875 C 220.679688 263.078125 218.507812 267.308594 209.90625 272.570312 C 190.175781 284.628906 166.734375 278.519531 160.582031 272.40625 C 175.539062 270.886719 184.71875 266.625 193.210938 259.15625 C 200.039062 253.136719 198.667969 238.234375 172.8125 249.296875 C 132.363281 266.617188 89.875 243.519531 75.316406 221.585938 C 75.898438 223.855469 76.550781 226.105469 77.269531 228.335938 C 77.992188 230.566406 78.78125 232.769531 79.640625 234.953125 C 80.5 237.132812 81.425781 239.285156 82.417969 241.40625 C 83.410156 243.53125 84.464844 245.621094 85.585938 247.679688 C 86.707031 249.738281 87.894531 251.757812 89.140625 253.742188 C 90.386719 255.726562 91.691406 257.671875 93.0625 259.574219 C 94.429688 261.480469 95.851562 263.339844 97.335938 265.152344 C 98.816406 266.96875 100.355469 268.738281 101.949219 270.457031 C 103.539062 272.179688 105.183594 273.847656 106.878906 275.464844 C 108.574219 277.085938 110.320312 278.648438 112.113281 280.160156 C 113.90625 281.667969 115.742188 283.121094 117.625 284.519531 C 119.507812 285.917969 121.433594 287.253906 123.398438 288.53125 C 125.363281 289.808594 127.367188 291.023438 129.40625 292.175781 C 131.449219 293.332031 133.523438 294.417969 135.632812 295.445312 C 137.742188 296.46875 139.878906 297.429688 142.046875 298.320312 C 144.214844 299.214844 146.410156 300.039062 148.628906 300.792969 C 150.847656 301.550781 153.085938 302.238281 155.347656 302.855469 C 157.609375 303.472656 159.890625 304.019531 162.183594 304.5 C 164.480469 304.976562 166.789062 305.378906 169.109375 305.714844 C 171.429688 306.046875 173.757812 306.308594 176.097656 306.5 C 178.433594 306.6875 180.773438 306.804688 183.117188 306.851562 C 185.460938 306.894531 187.804688 306.867188 190.148438 306.769531 C 192.492188 306.667969 194.828125 306.496094 197.160156 306.25 C 199.492188 306.003906 201.8125 305.6875 204.125 305.296875 C 206.4375 304.910156 208.734375 304.449219 211.019531 303.917969 C 213.304688 303.386719 215.566406 302.785156 217.816406 302.113281 C 220.0625 301.441406 222.285156 300.703125 224.484375 299.894531 C 226.683594 299.082031 228.859375 298.207031 231.003906 297.261719 C 233.152344 296.320312 235.265625 295.308594 237.347656 294.234375 C 239.433594 293.160156 241.480469 292.023438 243.496094 290.820312 C 245.507812 289.621094 247.480469 288.355469 249.414062 287.035156 C 251.351562 285.710938 253.242188 284.328125 255.089844 282.886719 C 260.359375 278.417969 254.1875 268.773438 246.101562 276.820312 Z M 246.101562 276.820312 " fill-opacity="1" fill-rule="nonzero"/></svg>